<?xml version="1.0" standalone="no"?>
<!DOCTYPE svg PUBLIC "-//W3C//DTD SVG 20010904//EN"
 "http://www.w3.org/TR/2001/REC-SVG-20010904/DTD/svg10.dtd">
<svg version="1.0" xmlns="http://www.w3.org/2000/svg"
 width="500.000000pt" height="500.000000pt" viewBox="0 0 500.000000 500.000000"
 preserveAspectRatio="xMidYMid meet">

<g transform="translate(0.000000,500.000000) scale(0.100000,-0.100000)"
fill="#000000" stroke="none">
<path d="M3272 4908 c-35 -78 -2134 -4603 -2143 -4619 -7 -13 32 -34 233 -128
133 -61 245 -110 250 -109 5 2 481 1022 1059 2268 578 1246 1065 2297 1084
2337 l33 71 -239 111 c-132 61 -243 111 -249 111 -5 0 -18 -19 -28 -42z"/>
<path d="M847 3772 l-687 -387 0 -236 0 -237 686 -386 c378 -213 688 -385 690
-383 2 2 62 106 133 232 110 194 128 232 115 241 -8 7 -221 128 -474 270 -253
143 -460 261 -460 264 1 3 210 122 466 265 255 143 469 263 475 266 6 4 -44
102 -122 240 -72 129 -132 235 -133 236 -1 1 -310 -173 -689 -385z"/>
<path d="M3262 2558 c-102 -182 -128 -235 -118 -243 7 -5 221 -127 475 -269
254 -143 458 -263 454 -267 -5 -5 -217 -126 -473 -270 -256 -143 -466 -262
-468 -263 -4 -4 263 -474 268 -472 3 2 312 175 688 386 l682 383 -2 241 -3
241 -680 383 c-374 210 -682 382 -686 382 -3 0 -65 -105 -137 -232z"/>
</g>
</svg>
